<?xml version="1.0" standalone="no"?>
<!DOCTYPE svg PUBLIC "-//W3C//DTD SVG 20010904//EN"
 "http://www.w3.org/TR/2001/REC-SVG-20010904/DTD/svg10.dtd">
<svg version="1.0" xmlns="http://www.w3.org/2000/svg"
 width="1269.000000pt" height="501.000000pt" viewBox="0 0 1269.000000 501.000000"
 preserveAspectRatio="xMidYMid meet">

<g transform="translate(0.000000,501.000000) scale(0.100000,-0.100000)"
fill="#000000" stroke="none">
<path d="M0 2505 l0 -2505 6345 0 6345 0 0 2505 0 2505 -6345 0 -6345 0 0
-2505z m821 1975 c16 -48 30 -78 33 -70 3 8 16 47 29 85 22 65 26 70 55 73
l32 3 -44 -123 c-43 -123 -44 -123 -77 -126 l-34 -3 -42 126 -42 126 32 -3
c30 -3 32 -7 58 -88z m229 -35 l0 -125 -30 0 -30 0 0 125 0 125 30 0 30 0 0
-125z m204 104 c33 -26 35 -73 5 -105 l-22 -23 37 -51 36 -50 -34 0 c-30 0
-38 6 -63 45 -36 58 -53 58 -53 0 0 -43 -1 -45 -30 -45 l-30 0 0 125 0 125 64
0 c49 0 69 -5 90 -21z m246 -4 c0 -22 -4 -25 -35 -25 l-35 0 0 -100 0 -100
-25 0 -25 0 0 100 0 100 -35 0 c-31 0 -35 3 -35 25 0 25 0 25 95 25 95 0 95 0
95 -25z m102 -72 l3 -98 30 -3 c44 -5 55 18 55 115 l0 83 31 0 31 0 -4 -99
c-3 -88 -6 -102 -26 -124 -13 -14 -39 -28 -57 -31 -41 -8 -99 14 -114 42 -6
12 -11 64 -11 116 l0 96 30 0 29 0 3 -97z m344 45 c9 -29 28 -82 41 -118 12
-36 23 -68 23 -72 0 -5 -14 -8 -31 -8 -24 0 -32 6 -40 30 -10 26 -16 30 -49
30 -33 0 -39 -4 -49 -30 -8 -25 -15 -30 -42 -30 -21 0 -30 4 -26 13 2 6 22 63
43 124 l39 113 37 0 c35 0 37 -2 54 -52z m154 -48 l0 -100 50 0 c47 0 50 -2
50 -25 0 -25 -1 -25 -80 -25 l-80 0 0 125 0 125 30 0 30 0 0 -100z m336 15
c14 -47 28 -85 30 -85 1 0 15 38 30 85 l28 85 38 0 38 0 0 -125 0 -125 -25 0
c-23 0 -24 3 -27 73 l-3 72 -25 -73 c-23 -71 -25 -73 -54 -70 -29 3 -32 8 -57
88 l-27 85 -1 -87 c-1 -87 -1 -88 -26 -88 l-25 0 0 125 0 125 40 0 39 0 27
-85z m393 -31 c23 -63 41 -120 41 -125 0 -5 -13 -9 -29 -9 -23 0 -31 6 -40 30
-9 27 -15 30 -50 30 -34 0 -40 -3 -50 -30 -8 -24 -16 -30 -40 -30 -17 0 -31 1
-31 3 0 6 81 230 86 239 3 4 20 8 39 8 l33 0 41 -116z m242 106 c15 -9 17 -15
9 -29 -8 -15 -18 -18 -53 -14 -38 5 -47 2 -61 -18 -20 -30 -21 -78 0 -107 13
-20 24 -23 63 -21 43 3 46 2 46 -21 0 -51 -127 -47 -161 6 -22 33 -29 107 -14
144 19 46 56 70 107 70 24 0 53 -5 64 -10z m107 -37 c3 -43 3 -43 43 -43 l39
0 0 46 c0 45 0 45 33 42 l32 -3 3 -122 3 -123 -36 0 -35 0 0 50 0 50 -40 0
-40 0 0 -50 0 -50 -35 0 -35 0 0 126 0 125 33 -3 c30 -3 32 -6 35 -45z m272
-78 l0 -125 -35 0 -35 0 0 118 c0 65 3 122 7 125 3 4 19 7 35 7 l28 0 0 -125z
m170 47 l45 -77 3 78 3 77 29 0 30 0 0 -125 0 -125 -38 0 c-37 0 -39 2 -87 86
l-50 86 -3 -86 c-3 -84 -3 -86 -27 -86 l-25 0 0 125 0 125 38 0 c36 0 39 -3
82 -78z m310 53 c0 -23 -4 -25 -46 -25 -41 0 -45 -2 -42 -22 2 -19 10 -24 46
-26 38 -3 43 -6 40 -25 -2 -18 -11 -23 -45 -25 -38 -3 -43 -6 -43 -28 0 -22 4
-24 45 -24 41 0 45 -2 45 -25 0 -24 -2 -25 -75 -25 l-75 0 0 125 0 125 75 0
c73 0 75 -1 75 -25z m178 16 c8 -5 12 -17 10 -27 -3 -16 -11 -18 -45 -16 -68
6 -66 -13 7 -61 48 -31 60 -69 34 -104 -24 -32 -64 -45 -113 -35 -29 6 -37 13
-39 34 -3 25 -2 26 49 24 66 -1 74 16 20 43 -42 22 -71 55 -71 82 0 9 9 28 21
43 17 21 29 26 67 26 26 0 53 -4 60 -9z m4662 -51 c12 -7 13 -13 3 -27 -6 -10
-17 -16 -25 -14 -34 9 -72 3 -84 -14 -18 -24 -18 -96 0 -120 11 -15 25 -19 61
-17 43 1 46 0 43 -21 -3 -19 -10 -22 -55 -25 -64 -4 -97 15 -114 65 -32 98 19
183 109 183 26 0 54 -5 62 -10z m245 -12 c51 -45 53 -149 3 -198 -25 -26 -37
-30 -84 -30 -45 0 -59 5 -86 29 -31 28 -33 33 -33 96 0 63 2 68 33 96 27 24
41 29 87 29 42 0 60 -5 80 -22z m200 -64 l50 -85 3 85 c3 84 3 86 27 86 l25 0
0 -125 0 -125 -37 0 c-36 0 -40 3 -75 68 -66 120 -67 120 -68 20 0 -87 0 -88
-25 -88 l-25 0 0 125 0 125 38 0 c36 0 38 -3 87 -86z m335 61 c0 -22 -4 -25
-35 -25 l-35 0 0 -100 0 -100 -25 0 c-25 0 -25 0 -25 99 l0 100 -32 3 c-25 2
-34 8 -36 26 -3 21 -1 22 92 22 96 0 96 0 96 -25z m197 -102 l43 -123 -31 0
c-24 0 -32 6 -40 30 -10 27 -15 30 -54 30 -39 0 -43 -2 -48 -30 -6 -26 -11
-30 -38 -30 -21 0 -30 4 -27 13 3 6 22 63 43 125 l37 113 36 -3 36 -3 43 -122z
m133 2 l0 -125 -30 0 -30 0 0 125 0 125 30 0 30 0 0 -125z m176 39 l49 -85 3
85 c3 84 3 86 27 86 l25 0 0 -126 0 -125 -37 3 c-35 3 -40 8 -80 78 -47 82
-66 99 -63 54 1 -16 2 -53 1 -81 -1 -46 -4 -53 -21 -53 -19 0 -20 7 -20 125
l0 125 33 0 c31 0 36 -5 83 -86z m304 61 c0 -23 -4 -25 -46 -25 -41 0 -45 -2
-42 -22 2 -19 10 -24 46 -26 33 -3 42 -7 42 -22 0 -15 -9 -19 -42 -22 -39 -3
-43 -6 -46 -30 -3 -27 -2 -28 42 -28 42 0 46 -2 46 -25 0 -24 -2 -25 -70 -25
l-70 0 0 125 0 125 70 0 c68 0 70 -1 70 -25z m200 12 c34 -17 41 -84 11 -111
-19 -18 -19 -18 15 -72 l35 -54 -31 0 c-26 0 -35 7 -58 45 -35 58 -52 58 -52
0 0 -43 -1 -45 -30 -45 l-30 0 0 125 0 125 58 0 c31 0 68 -6 82 -13z m218 5
c7 -5 10 -16 6 -26 -5 -13 -16 -16 -47 -14 -55 4 -64 -24 -16 -50 50 -27 69
-49 69 -82 0 -50 -31 -71 -98 -68 -54 3 -57 5 -60 30 -3 26 -2 27 30 21 18 -3
35 -7 37 -9 6 -6 41 16 41 26 0 5 -15 17 -32 26 -77 39 -100 92 -58 134 21 21
102 28 128 12z m-8428 -1107 l0 -215 -995 0 -995 0 0 215 0 215 995 0 995 0 0
-215z m2140 -2 l0 -218 -1000 3 -1000 2 0 215 0 215 1000 0 1000 0 0 -217z
m5190 2 l0 -215 -995 0 -995 0 0 215 0 215 995 0 995 0 0 -215z m2140 0 l0
-215 -995 0 -995 0 0 215 0 215 995 0 995 0 0 -215z m-5659 80 c349 -65 622
-271 770 -580 79 -166 94 -237 93 -455 0 -172 -2 -191 -27 -275 -151 -497
-604 -804 -1112 -755 -128 12 -227 40 -341 95 -347 168 -571 505 -591 891 -15
291 84 556 290 771 240 251 591 368 918 308z m-3811 -615 l0 -220 -995 0 -995
0 0 220 0 220 995 0 995 0 0 -220z m2130 0 l0 -220 -997 2 -998 3 -3 218 -2
217 1000 0 1000 0 0 -220z m5200 0 l0 -220 -995 0 -995 0 0 220 0 220 995 0
995 0 0 -220z m2130 0 l0 -220 -995 0 -995 0 0 220 0 220 995 0 995 0 0 -220z
m-9460 -540 l0 -220 -995 0 -995 0 0 220 0 220 995 0 995 0 0 -220z m2130 0
l0 -220 -997 2 -998 3 -2 209 c-1 115 0 213 3 217 3 5 453 9 1000 9 l994 0 0
-220z m7330 -10 l0 -220 -2060 0 -2060 0 0 220 0 220 2060 0 2060 0 0 -220z
m-7330 -520 l0 -220 -2060 0 -2060 0 0 220 0 220 2060 0 2060 0 0 -220z m7330
-20 l0 -220 -2060 0 -2060 0 0 220 0 220 2060 0 2060 0 0 -220z m-7330 -520
l0 -220 -2060 0 -2060 0 0 220 0 220 2060 0 2060 0 0 -220z m7330 -15 l0 -215
-2060 0 -2060 0 0 215 0 215 2060 0 2060 0 0 -215z m-7330 -525 l0 -220 -2060
0 -2060 0 0 220 0 220 2060 0 2060 0 0 -220z"/>
<path d="M1160 4491 c0 -23 5 -31 18 -31 49 1 58 53 9 58 -24 3 -27 0 -27 -27z"/>
<path d="M1881 4477 c-15 -39 -14 -47 9 -47 21 0 25 20 10 55 -7 19 -9 18 -19
-8z"/>
<path d="M2741 4477 c-14 -43 -12 -50 16 -45 17 3 18 7 8 43 l-12 40 -12 -38z"/>
<path d="M8895 4455 c-34 -33 -34 -87 0 -121 19 -18 31 -23 48 -19 38 12 50
32 50 81 0 37 -5 51 -22 66 -31 24 -47 23 -76 -7z"/>
<path d="M9652 4421 c-10 -40 -9 -41 15 -41 22 0 24 3 18 33 -11 50 -21 52
-33 8z"/>
<path d="M10480 4440 c0 -33 15 -38 45 -16 25 18 13 46 -20 46 -21 0 -25 -5
-25 -30z"/>
<path d="M380 3405 l0 -195 975 0 975 0 0 195 0 195 -975 0 -975 0 0 -195z
m660 16 c16 -41 30 -80 30 -87 0 -25 -21 -14 -31 16 -9 25 -16 30 -44 30 -27
0 -35 -5 -45 -30 -7 -16 -18 -30 -25 -30 -9 0 -3 26 20 85 40 100 45 109 56
98 4 -4 22 -41 39 -82z m484 53 c-5 -18 -2 -24 10 -24 8 0 18 11 22 25 3 14
10 25 15 25 5 0 9 -11 9 -25 0 -14 5 -25 10 -25 6 0 10 -4 10 -10 0 -5 -6 -10
-14 -10 -7 0 -16 -9 -19 -20 -4 -15 0 -20 14 -20 10 0 19 -4 19 -10 0 -5 -9
-10 -20 -10 -13 0 -22 -9 -26 -25 -3 -14 -11 -25 -16 -25 -6 0 -8 11 -6 25 4
19 1 25 -13 25 -10 0 -19 -9 -21 -22 -2 -12 -9 -23 -16 -26 -9 -3 -11 3 -6 22
5 20 2 26 -10 26 -9 0 -16 5 -16 10 0 6 9 10 20 10 13 0 20 7 20 20 0 11 -7
20 -15 20 -8 0 -15 5 -15 10 0 6 8 10 19 10 13 0 20 10 25 31 3 17 10 28 16
24 6 -3 7 -17 4 -31z m176 -65 c0 -68 -3 -90 -12 -86 -8 2 -14 24 -14 53 -3
81 -3 84 -18 78 -24 -9 -27 14 -4 30 43 30 48 23 48 -75z m-496 29 c36 -51 8
-118 -50 -118 -31 0 -34 -2 -34 -30 0 -20 -5 -30 -15 -30 -12 0 -15 18 -15 98
l0 98 49 2 c42 2 53 -2 65 -20z m156 3 c15 -29 12 -87 -6 -105 -8 -9 -31 -16
-50 -16 -31 0 -34 -2 -34 -30 0 -16 -4 -30 -10 -30 -6 0 -10 39 -10 98 l0 99
50 2 c40 1 51 -2 60 -18z"/>
<path d="M981 3430 c-9 -28 -8 -30 14 -30 22 0 23 2 14 30 -6 17 -12 30 -14
30 -2 0 -8 -13 -14 -30z"/>
<path d="M1517 3423 c-12 -11 -7 -33 7 -33 7 0 16 9 19 20 5 19 -12 28 -26 13z"/>
<path d="M1127 3433 c-9 -8 -9 -56 -1 -77 14 -37 64 -10 64 34 0 39 -40 67
-63 43z"/>
<path d="M1281 3418 c-13 -36 1 -73 30 -73 22 0 24 4 24 45 0 39 -3 45 -23 48
-16 2 -25 -3 -31 -20z"/>
<path d="M2520 3405 l0 -195 975 0 975 0 0 195 0 195 -975 0 -975 0 0 -195z
m617 9 c18 -43 33 -85 33 -91 0 -25 -21 -13 -31 17 -9 25 -16 30 -44 30 -27 0
-35 -5 -45 -30 -7 -16 -19 -30 -26 -30 -11 0 -9 12 7 53 12 28 28 71 36 95 8
24 20 41 27 39 6 -2 26 -39 43 -83z m487 50 c-5 -18 -2 -24 10 -24 8 0 18 11
22 25 3 14 11 25 16 25 6 0 8 -11 6 -25 -4 -17 -1 -25 8 -25 8 0 14 -4 14 -10
0 -5 -7 -10 -15 -10 -8 0 -15 -2 -15 -4 0 -2 -3 -11 -6 -19 -4 -11 2 -17 18
-20 l23 -4 -23 -8 c-12 -4 -25 -18 -28 -31 -8 -32 -24 -31 -24 1 0 31 -27 34
-32 3 -2 -12 -9 -23 -16 -26 -9 -3 -11 3 -6 22 5 20 2 26 -10 26 -9 0 -16 5
-16 10 0 6 9 10 20 10 13 0 20 7 20 20 0 11 -7 20 -15 20 -8 0 -15 5 -15 10 0
6 9 10 20 10 14 0 20 7 20 23 0 27 9 39 21 31 5 -3 6 -16 3 -30z m187 26 c32
-18 25 -66 -18 -114 l-38 -41 43 -3 c64 -5 50 -22 -18 -22 -38 0 -60 4 -60 11
0 7 20 34 45 60 25 26 45 55 45 63 0 21 -32 37 -51 25 -20 -13 -29 -11 -29 5
0 23 50 32 81 16z m-505 -65 c11 -17 14 -35 10 -57 -9 -44 -24 -58 -62 -58
-31 0 -34 -3 -34 -30 0 -20 -5 -30 -15 -30 -12 0 -15 18 -15 98 l0 98 50 2
c43 2 52 -1 66 -23z m148 9 c21 -20 21 -88 0 -108 -8 -9 -31 -16 -50 -16 -31
0 -34 -2 -34 -30 0 -16 -4 -30 -10 -30 -6 0 -10 39 -10 98 l0 99 44 1 c29 2
50 -3 60 -14z"/>
<path d="M3082 3425 c-15 -32 -12 -38 16 -33 18 3 19 6 8 32 l-12 29 -12 -28z"/>
<path d="M3617 3413 c-12 -11 -7 -33 7 -33 7 0 16 9 19 20 5 19 -12 28 -26 13z"/>
<path d="M3227 3423 c-15 -14 -7 -84 9 -90 38 -14 71 49 43 83 -12 15 -41 19
-52 7z"/>
<path d="M3380 3406 c-13 -35 3 -76 30 -76 21 0 34 31 28 71 -5 35 -45 38 -58
5z"/>
<path d="M7710 3405 l0 -195 975 0 975 0 0 195 0 195 -975 0 -975 0 0 -195z
m690 16 c16 -41 30 -80 30 -87 0 -24 -15 -15 -27 16 -10 25 -17 30 -46 30 -29
0 -37 -5 -47 -30 -12 -29 -30 -41 -30 -20 0 6 12 39 26 73 15 34 31 73 36 86
12 32 21 21 58 -68z m484 53 c-6 -22 -4 -25 12 -22 11 2 20 13 22 26 2 12 8
22 14 22 6 0 8 -11 6 -25 -4 -17 -1 -25 8 -25 8 0 14 -4 14 -10 0 -5 -7 -10
-15 -10 -8 0 -15 -2 -15 -4 0 -2 -3 -11 -6 -20 -4 -12 0 -16 15 -16 12 0 21
-4 21 -10 0 -5 -9 -10 -20 -10 -13 0 -22 -9 -26 -25 -3 -14 -11 -25 -16 -25
-6 0 -7 11 -4 25 5 20 3 25 -14 25 -13 0 -20 -7 -20 -19 0 -11 -4 -23 -10 -26
-6 -3 -10 4 -10 16 0 12 -8 28 -17 35 -17 12 -16 13 5 14 27 0 30 27 5 46 -17
12 -17 13 3 14 15 0 24 8 28 25 4 14 11 25 16 25 6 0 8 -11 4 -26z m176 -64
c0 -53 -4 -90 -10 -90 -6 0 -10 32 -10 75 0 73 -1 75 -20 65 -24 -13 -26 -3
-3 22 34 38 43 23 43 -72z m-494 25 c11 -17 14 -35 10 -59 -8 -43 -28 -59 -66
-54 -28 4 -30 3 -30 -29 0 -18 -4 -33 -10 -33 -6 0 -10 39 -10 98 l0 97 45 3
c38 2 46 -1 61 -23z m149 9 c20 -21 20 -88 -2 -109 -11 -12 -26 -15 -50 -12
-32 6 -33 5 -33 -29 0 -19 -4 -34 -10 -34 -6 0 -10 39 -10 98 l0 98 45 2 c29
1 49 -4 60 -14z"/>
<path d="M8348 3454 c-3 -11 -9 -27 -13 -36 -6 -15 -2 -18 19 -18 29 0 32 13
12 49 -12 21 -13 22 -18 5z"/>
<path d="M8877 3423 c-12 -11 -7 -33 7 -33 12 0 26 20 26 36 0 7 -26 5 -33 -3z"/>
<path d="M8484 3427 c-3 -8 -4 -30 -2 -49 3 -29 6 -33 33 -33 29 0 30 2 30 45
0 42 -2 45 -28 48 -17 2 -29 -2 -33 -11z"/>
<path d="M8640 3415 c-12 -32 3 -75 28 -75 25 0 42 20 42 50 0 51 -53 70 -70
25z"/>
<path d="M9850 3405 l0 -195 975 0 975 0 0 195 0 195 -975 0 -975 0 0 -195z
m649 5 c17 -44 31 -84 31 -90 0 -21 -19 -9 -29 20 -8 25 -15 30 -44 30 -29 0
-37 -5 -47 -30 -12 -29 -30 -41 -30 -20 0 9 57 157 66 172 10 16 23 -4 53 -82z
m665 80 c40 -15 36 -66 -9 -110 -19 -19 -35 -38 -35 -42 0 -4 18 -8 40 -8 22
0 40 -4 40 -10 0 -11 -103 -14 -113 -4 -4 4 14 29 38 56 47 52 55 77 31 97
-11 9 -20 9 -35 2 -25 -14 -31 -14 -31 -1 0 9 17 19 47 29 1 1 13 -3 27 -9z
m-180 -26 c-6 -22 -4 -25 12 -22 11 2 20 13 22 26 2 12 8 22 14 22 6 0 8 -11
6 -25 -4 -17 -1 -25 8 -25 8 0 14 -4 14 -10 0 -5 -7 -10 -15 -10 -8 0 -15 -2
-15 -4 0 -2 -3 -11 -6 -19 -4 -11 2 -17 18 -19 23 -4 23 -5 -4 -16 -18 -7 -28
-19 -28 -32 0 -11 -5 -20 -11 -20 -7 0 -9 10 -7 25 4 19 1 25 -13 25 -12 0
-19 -7 -19 -19 0 -11 -4 -23 -10 -26 -6 -3 -10 4 -10 16 0 12 -8 28 -17 35
-17 12 -16 13 5 14 15 0 22 6 22 20 0 11 -7 20 -15 20 -8 0 -15 5 -15 10 0 6
9 10 20 10 13 0 20 7 20 18 0 20 8 32 22 32 5 0 5 -12 2 -26z m-316 -47 c15
-31 8 -79 -14 -97 -7 -7 -27 -10 -44 -8 -27 4 -30 2 -30 -23 0 -15 -4 -31 -10
-34 -6 -4 -10 29 -10 92 l0 99 47 -1 c42 0 49 -3 61 -28z m147 17 c8 -8 15
-32 15 -53 0 -49 -27 -76 -70 -68 -29 6 -30 5 -30 -28 0 -19 -4 -35 -10 -35
-6 0 -10 39 -10 98 l0 98 45 2 c29 1 49 -4 60 -14z"/>
<path d="M10448 3444 c-3 -11 -9 -27 -13 -36 -6 -15 -2 -18 20 -18 23 0 25 3
19 23 -12 42 -21 51 -26 31z"/>
<path d="M10970 3400 c0 -24 25 -27 34 -4 9 23 8 24 -14 24 -13 0 -20 -7 -20
-20z"/>
<path d="M10584 3417 c-3 -8 -4 -30 -2 -49 2 -28 7 -34 30 -36 22 -3 29 2 33
21 12 46 2 72 -28 75 -17 2 -29 -2 -33 -11z"/>
<path d="M10740 3405 c-12 -32 3 -75 28 -75 25 0 42 20 42 50 0 51 -53 70 -70
25z"/>
<path d="M5286 2972 c-2 -4 10 -66 28 -137 l32 -130 35 -3 35 -3 23 96 c13 52
26 97 30 99 4 3 19 -39 32 -92 25 -95 26 -97 56 -100 35 -4 32 -9 77 159 31
116 31 119 7 119 -27 0 -36 -16 -56 -110 -23 -108 -31 -125 -40 -85 -34 145
-51 190 -73 193 -26 4 -29 -4 -63 -138 l-23 -95 -21 90 c-35 148 -34 145 -55
145 -10 0 -21 -4 -24 -8z"/>
<path d="M5710 2840 l0 -140 25 0 c22 0 24 4 27 58 l3 57 63 3 62 3 0 -61 c0
-57 1 -60 25 -60 l25 0 0 141 c0 140 0 140 -22 137 -20 -3 -24 -10 -28 -58
l-5 -55 -39 -3 c-22 -2 -50 -1 -63 2 -21 6 -23 12 -23 61 0 52 -1 55 -25 55
l-25 0 0 -140z"/>
<path d="M6086 2972 c-7 -11 -96 -258 -96 -266 0 -3 11 -6 26 -6 19 0 28 7 35
30 11 29 13 30 70 30 58 0 60 -1 66 -30 4 -25 10 -30 34 -30 17 0 29 5 28 13
0 6 -22 68 -48 137 -45 121 -48 125 -78 128 -17 2 -34 -1 -37 -6z m57 -95 c9
-30 17 -57 17 -60 0 -4 -18 -7 -40 -7 -22 0 -40 3 -40 7 0 16 34 113 40 113 3
0 14 -24 23 -53z"/>
<path d="M6270 2961 c0 -16 8 -20 38 -23 l37 -3 3 -117 c3 -118 3 -118 27
-118 24 0 24 0 27 118 l3 117 38 3 c29 3 37 7 37 23 0 18 -8 19 -105 19 -97 0
-105 -1 -105 -19z"/>
<path d="M6580 2973 c-32 -12 -50 -37 -50 -68 0 -39 13 -55 73 -89 46 -27 61
-56 35 -72 -16 -10 -75 -6 -99 6 -19 11 -20 9 -17 -17 3 -24 9 -29 43 -35 51
-8 112 7 125 32 28 51 4 98 -68 134 -39 20 -49 40 -31 62 10 12 23 14 55 9 42
-6 66 7 47 26 -11 11 -93 20 -113 12z"/>
<path d="M5955 2618 c-5 -16 -35 -176 -35 -189 0 -5 4 -9 9 -9 9 0 32 77 36
120 1 14 5 40 9 58 5 21 4 32 -4 32 -6 0 -13 -6 -15 -12z"/>
<path d="M5852 2577 c-19 -23 -24 -143 -7 -157 8 -7 19 -9 25 -5 8 5 6 11 -5
18 -22 17 -10 108 17 115 21 5 24 22 4 22 -8 0 -16 5 -18 11 -2 7 -8 6 -16 -4z"/>
<path d="M5979 2554 c-12 -15 -11 -16 9 -10 30 10 37 -10 24 -71 -11 -49 -7
-68 8 -43 16 26 23 110 10 125 -16 20 -34 19 -51 -1z"/>
<path d="M6113 2555 c-44 -31 -51 -122 -10 -138 18 -7 57 2 57 13 0 5 -9 6
-20 3 -23 -6 -50 12 -50 33 0 8 10 14 23 14 50 0 84 49 55 78 -16 16 -29 15
-55 -3z m47 -18 c0 -19 -21 -37 -42 -37 -21 0 -24 20 -6 38 16 16 48 15 48 -1z"/>
<path d="M5290 2490 c0 -19 7 -20 245 -20 238 0 245 1 245 20 0 19 -7 20 -245
20 -238 0 -245 -1 -245 -20z"/>
<path d="M6210 2490 c0 -19 7 -20 250 -20 243 0 250 1 250 20 0 19 -7 20 -250
20 -243 0 -250 -1 -250 -20z"/>
<path d="M5318 2294 c-5 -4 -8 -97 -8 -207 l0 -200 94 5 c108 6 156 27 196 85
22 32 25 47 25 123 0 79 -2 90 -28 123 -41 54 -78 69 -182 75 -49 2 -93 1 -97
-4z m183 -75 c34 -17 51 -56 51 -113 1 -101 -36 -146 -122 -146 l-40 0 0 133
c0 74 3 137 8 141 8 9 77 -1 103 -15z"/>
<path d="M5720 2096 l0 -206 40 0 40 0 -2 203 -3 202 -37 3 -38 3 0 -205z"/>
<path d="M5907 2293 c-4 -3 -7 -96 -7 -205 l0 -198 40 0 40 0 0 85 0 85 65 0
65 0 0 30 0 30 -65 0 -66 0 3 58 3 57 68 3 c67 3 67 3 67 32 l0 30 -103 0
c-57 0 -107 -3 -110 -7z"/>
<path d="M6207 2293 c-4 -3 -7 -96 -7 -205 l0 -198 40 0 39 0 3 83 3 82 63 3
c61 3 62 3 62 32 l0 30 -65 0 -66 0 3 58 3 57 68 3 c67 3 67 3 67 32 l0 30
-103 0 c-57 0 -107 -3 -110 -7z"/>
<path d="M6492 2285 c-30 -13 -31 -16 -20 -40 8 -18 16 -24 27 -19 34 14 101
16 116 4 25 -21 18 -40 -35 -96 -34 -36 -50 -61 -50 -79 0 -24 3 -26 32 -23
24 2 34 9 36 23 2 11 24 38 48 61 38 35 44 46 44 82 0 22 -3 48 -6 57 -16 42
-125 59 -192 30z"/>
<path d="M6524 1945 c-8 -33 11 -55 47 -55 22 0 30 6 35 25 8 33 -11 55 -47
55 -22 0 -30 -6 -35 -25z"/>
<path d="M380 2875 l0 -195 975 0 975 0 0 195 0 195 -975 0 -975 0 0 -195z
m1250 46 c0 -25 3 -27 34 -23 26 3 37 -1 50 -19 20 -30 21 -68 0 -97 -12 -18
-24 -22 -60 -20 l-44 1 0 99 c0 64 4 97 10 93 6 -3 10 -19 10 -34z m-620 8 c0
-5 -7 -9 -15 -9 -15 0 -20 12 -9 23 8 8 24 -1 24 -14z m560 0 c0 -5 -7 -9 -15
-9 -15 0 -20 12 -9 23 8 8 24 -1 24 -14z m-636 -11 c13 -19 14 -25 2 -43 -11
-17 -11 -22 0 -33 8 -7 14 -21 14 -32 0 -33 -28 -50 -81 -50 l-49 0 0 90 0 90
49 0 c40 0 53 -4 65 -22z m456 13 c0 -5 -6 -24 -13 -42 -8 -19 -22 -55 -31
-81 -10 -27 -24 -48 -32 -48 -10 0 -6 20 17 81 16 45 32 86 35 90 7 12 24 12
24 0z m50 -71 l0 -80 40 0 c22 0 40 -4 40 -10 0 -5 -25 -10 -55 -10 l-55 0 0
90 c0 73 3 90 15 90 12 0 15 -16 15 -80z m-430 -30 c0 -56 -3 -70 -15 -70 -12
0 -15 14 -15 70 0 56 3 70 15 70 12 0 15 -14 15 -70z m136 59 c16 -13 20 -129
4 -129 -5 0 -10 20 -10 44 0 56 -8 76 -29 76 -29 0 -41 -22 -41 -72 0 -36 -4
-48 -15 -48 -12 0 -15 14 -15 63 0 35 2 66 4 68 10 10 89 9 102 -2z m136 -4
c-1 -5 -16 -8 -32 -7 -41 5 -39 -20 3 -39 26 -11 32 -20 32 -44 0 -29 -2 -30
-47 -33 -56 -4 -66 15 -11 20 48 4 52 20 8 41 -41 20 -53 41 -34 63 14 17 86
16 81 -1z m288 -55 c0 -56 -3 -70 -15 -70 -12 0 -15 14 -15 63 0 35 3 67 7 70
17 18 23 1 23 -63z m277 58 c-2 -8 -16 -12 -35 -10 -43 5 -42 -20 1 -39 26
-11 32 -20 32 -44 0 -29 -2 -30 -47 -33 -56 -4 -66 15 -11 20 48 4 52 20 8 41
-41 19 -53 41 -35 62 16 19 94 21 87 3z"/>
<path d="M1638 2856 c-16 -37 3 -79 35 -74 19 3 22 9 22 48 0 39 -3 45 -22 48
-16 2 -26 -4 -35 -22z"/>
<path d="M850 2895 c0 -21 5 -25 29 -25 17 0 33 5 36 10 10 16 -15 40 -41 40
-19 0 -24 -5 -24 -25z"/>
<path d="M850 2810 c0 -29 2 -31 33 -28 27 2 32 7 32 28 0 21 -5 26 -32 28
-31 3 -33 1 -33 -28z"/>
<path d="M2510 2875 l0 -195 975 0 975 0 0 195 0 195 -975 0 -975 0 0 -195z
m1230 49 c0 -21 5 -24 34 -24 58 0 86 -67 51 -118 -13 -18 -25 -21 -65 -21
l-50 2 0 92 c0 50 3 95 6 98 12 11 24 -3 24 -29z m-620 5 c0 -5 -7 -9 -15 -9
-15 0 -20 12 -9 23 8 8 24 -1 24 -14z m560 0 c0 -5 -7 -9 -15 -9 -15 0 -20 12
-9 23 8 8 24 -1 24 -14z m-642 -1 c15 -15 16 -54 2 -63 -6 -4 -4 -12 5 -21 40
-40 5 -84 -66 -84 l-49 0 0 90 0 90 48 0 c26 0 53 -5 60 -12z m459 -2 c-3 -8
-18 -49 -33 -90 -17 -48 -32 -76 -41 -76 -8 0 -13 4 -11 8 2 4 16 45 33 90 17
48 35 82 43 82 8 0 12 -6 9 -14z m53 -66 l0 -80 40 0 c22 0 40 -4 40 -10 0 -5
-25 -10 -55 -10 l-55 0 0 90 c0 73 3 90 15 90 12 0 15 -16 15 -80z m-432 -33
c2 -55 0 -67 -13 -67 -12 0 -15 14 -15 71 0 52 3 70 13 67 7 -3 13 -29 15 -71z
m138 62 c16 -13 20 -129 4 -129 -10 0 -14 14 -10 39 5 35 -11 81 -28 81 -30 0
-42 -21 -42 -72 0 -36 -4 -48 -15 -48 -12 0 -15 14 -15 63 0 35 2 66 4 68 10
10 89 9 102 -2z m136 -4 c-1 -5 -16 -8 -32 -7 -42 5 -39 -20 5 -41 26 -12 35
-23 35 -41 0 -27 -16 -36 -66 -36 -46 0 -43 18 4 22 43 4 46 17 7 38 -40 22
-52 44 -35 65 14 17 87 18 82 0z m288 -55 c0 -56 -3 -70 -15 -70 -12 0 -15 14
-15 70 0 56 3 70 15 70 12 0 15 -14 15 -70z m272 55 c-1 -5 -16 -8 -32 -7 -41
5 -39 -20 3 -39 26 -11 32 -20 32 -44 0 -23 -5 -30 -25 -35 -30 -7 -70 -1 -70
11 0 4 17 9 37 11 48 4 52 20 8 41 -41 20 -53 41 -34 63 14 17 86 16 81 -1z"/>
<path d="M3752 2868 c-14 -14 -16 -57 -3 -76 14 -22 56 -10 59 17 9 57 -24 91
-56 59z"/>
<path d="M2960 2895 c0 -21 5 -25 29 -25 31 0 46 21 28 39 -6 6 -21 11 -34 11
-18 0 -23 -6 -23 -25z"/>
<path d="M2960 2810 c0 -29 2 -31 33 -28 27 2 32 7 32 28 0 21 -5 26 -32 28
-31 3 -33 1 -33 -28z"/>
<path d="M7710 2870 l0 -200 975 0 975 0 0 200 0 200 -975 0 -975 0 0 -200z
m657 54 c-9 -9 -28 6 -21 18 4 6 10 6 17 -1 6 -6 8 -13 4 -17z m560 0 c-9 -9
-28 6 -21 18 4 6 10 6 17 -1 6 -6 8 -13 4 -17z m63 -3 c0 -28 2 -29 34 -24 27
4 36 1 50 -18 20 -30 21 -68 0 -97 -12 -18 -24 -22 -60 -20 l-44 1 0 94 c0 55
4 93 10 93 6 0 10 -13 10 -29z m-702 7 c15 -15 16 -54 2 -63 -6 -4 -4 -12 5
-21 40 -40 5 -84 -66 -84 l-49 0 0 83 c0 46 3 87 7 90 11 12 88 8 101 -5z
m462 5 c0 -18 -64 -173 -71 -173 -12 0 -11 12 4 51 8 19 22 55 31 82 10 26 22
47 27 47 5 0 9 -3 9 -7z m50 -73 l0 -80 40 0 c22 0 40 -4 40 -10 0 -5 -22 -10
-50 -10 l-50 0 0 90 c0 53 4 90 10 90 6 0 10 -33 10 -80z m-430 -36 c0 -36 -4
-64 -10 -64 -6 0 -10 30 -10 71 0 44 4 68 10 64 6 -3 10 -35 10 -71z m137 65
c15 -13 18 -129 3 -129 -5 0 -10 25 -10 55 0 42 -4 57 -16 62 -31 12 -49 -11
-52 -66 -4 -75 -22 -62 -22 17 l0 67 42 2 c23 2 47 -2 55 -8z m138 1 c4 -6 -8
-10 -29 -10 -47 0 -47 -21 -1 -43 26 -12 35 -23 35 -41 0 -13 -7 -27 -16 -30
-25 -10 -74 -7 -74 4 0 6 16 10 35 10 46 0 45 19 -2 45 -43 24 -50 37 -28 59
18 18 70 22 80 6z m285 -60 c0 -40 -4 -70 -10 -70 -6 0 -10 30 -10 70 0 40 4
70 10 70 6 0 10 -30 10 -70z m275 60 c4 -6 -8 -10 -29 -10 -47 0 -47 -21 -1
-43 26 -12 35 -23 35 -41 0 -13 -7 -27 -16 -30 -25 -10 -74 -7 -74 4 0 6 16
10 35 10 44 0 47 23 5 40 -41 17 -55 44 -34 64 17 18 69 22 79 6z"/>
<path d="M9000 2861 c-13 -26 -13 -54 2 -69 35 -35 82 14 60 63 -14 30 -47 33
-62 6z"/>
<path d="M8212 2893 c3 -32 25 -40 52 -20 28 20 14 47 -24 47 -28 0 -31 -3
-28 -27z"/>
<path d="M8210 2809 c0 -28 2 -30 33 -27 27 2 33 8 35 31 3 25 1 27 -32 27
-33 0 -36 -2 -36 -31z"/>
<path d="M9840 2870 l0 -200 975 0 975 0 0 200 0 200 -975 0 -975 0 0 -200z
m1260 51 c0 -28 2 -29 34 -24 27 4 36 1 50 -18 20 -30 21 -68 0 -97 -12 -18
-24 -22 -60 -20 l-44 1 0 94 c0 55 4 93 10 93 6 0 10 -13 10 -29z m-702 7 c15
-15 16 -50 2 -64 -8 -8 -6 -15 5 -24 40 -33 2 -80 -67 -80 l-48 0 0 90 0 90
48 0 c26 0 53 -5 60 -12z m82 2 c0 -5 -7 -10 -15 -10 -8 0 -15 5 -15 10 0 6 7
10 15 10 8 0 15 -4 15 -10z m377 -4 c-3 -8 -18 -49 -33 -90 -15 -42 -31 -76
-35 -76 -13 0 -11 14 12 77 12 32 26 68 30 81 5 12 14 22 20 22 6 0 9 -7 6
-14z m53 -66 l0 -80 40 0 c22 0 40 -4 40 -10 0 -5 -22 -10 -50 -10 l-50 0 0
90 c0 53 4 90 10 90 6 0 10 -33 10 -80z m130 70 c0 -5 -4 -10 -9 -10 -6 0 -13
5 -16 10 -3 6 1 10 9 10 9 0 16 -4 16 -10z m-560 -106 c0 -48 -3 -65 -12 -62
-14 5 -24 99 -14 125 12 32 26 -2 26 -63z m137 65 c15 -13 18 -129 3 -129 -5
0 -10 25 -10 55 0 42 -4 57 -16 62 -31 12 -49 -11 -52 -66 -4 -75 -22 -62 -22
17 l0 67 42 2 c23 2 47 -2 55 -8z m138 1 c4 -6 -8 -10 -29 -10 -47 0 -47 -21
-1 -43 36 -17 45 -43 23 -65 -15 -15 -74 -16 -83 -2 -4 6 10 10 34 10 52 0 53
18 4 45 -43 24 -50 37 -28 59 18 18 70 22 80 6z m285 -66 c0 -36 -4 -64 -10
-64 -6 0 -10 30 -10 71 0 44 4 68 10 64 6 -3 10 -35 10 -71z m275 66 c4 -6 -8
-10 -29 -10 -47 0 -47 -21 -1 -43 26 -12 35 -23 35 -41 0 -13 -7 -27 -16 -30
-25 -9 -72 -7 -79 4 -4 6 10 10 34 10 50 0 55 22 11 40 -42 18 -54 34 -40 59
7 15 21 21 45 21 18 0 37 -4 40 -10z"/>
<path d="M11112 2868 c-14 -14 -16 -57 -3 -76 4 -8 19 -12 32 -10 21 3 24 8
24 48 0 37 -3 45 -20 48 -11 1 -26 -3 -33 -10z"/>
<path d="M10322 2893 c3 -32 25 -40 52 -20 28 20 14 47 -24 47 -28 0 -31 -3
-28 -27z"/>
<path d="M10338 2842 c-12 -2 -18 -13 -18 -33 0 -28 2 -30 33 -27 26 2 33 8
35 29 3 28 -15 39 -50 31z"/>
<path d="M380 2335 l0 -195 975 0 975 0 0 195 0 195 -975 0 -975 0 0 -195z
m544 69 c9 -3 16 -12 16 -20 0 -10 -12 -13 -42 -12 -32 1 -45 -4 -60 -21 -38
-47 -8 -111 52 -111 25 0 30 4 30 25 0 18 -5 25 -20 25 -11 0 -20 7 -20 15 0
10 11 15 35 15 l35 0 0 -49 c0 -49 0 -49 -38 -56 -71 -12 -122 27 -122 93 0
45 16 71 53 87 35 16 57 18 81 9z m774 -30 c31 -35 30 -94 -2 -131 -19 -22
-32 -28 -66 -28 -54 0 -80 29 -80 90 0 59 8 75 44 91 40 17 75 10 104 -22z
m138 26 c34 -13 22 -27 -26 -32 -46 -4 -44 -18 8 -46 34 -19 42 -29 42 -53 0
-39 -37 -64 -85 -55 -52 10 -46 35 7 33 33 -2 43 2 46 16 2 12 -7 22 -32 32
-59 25 -72 85 -23 105 29 12 31 12 63 0z m-387 -40 c6 0 11 -7 11 -15 0 -8 -7
-15 -15 -15 -11 0 -15 -12 -15 -45 0 -39 3 -45 21 -45 24 0 21 -23 -5 -28 -30
-6 -46 18 -46 68 0 28 -5 50 -12 52 -7 3 -5 13 7 32 17 25 20 26 30 12 7 -9
17 -16 24 -16z m-437 -57 c2 -47 6 -58 22 -61 26 -5 36 15 36 71 0 35 4 47 15
47 12 0 15 -14 15 -69 l0 -68 -40 -7 c-66 -10 -80 3 -80 79 0 50 3 65 15 65
10 0 15 -15 17 -57z m222 35 c28 -40 21 -57 -26 -60 -57 -4 -60 -32 -5 -36 40
-3 49 -17 18 -27 -28 -9 -70 4 -81 25 -15 29 -12 81 7 102 23 25 68 23 87 -4z
m131 7 c0 -5 -15 -11 -32 -13 -42 -4 -42 -14 2 -35 65 -31 32 -101 -39 -83
-40 10 -33 33 9 28 20 -2 35 0 35 6 0 5 -16 19 -35 31 -36 21 -49 63 -22 75
20 8 82 2 82 -9z"/>
<path d="M1592 2358 c-17 -17 -15 -84 4 -102 37 -38 87 -8 87 51 0 22 -3 46
-7 52 -9 15 -69 14 -84 -1z"/>
<path d="M1165 2320 c-4 -6 7 -10 25 -10 18 0 29 4 25 10 -3 6 -15 10 -25 10
-10 0 -22 -4 -25 -10z"/>
<path d="M2510 2335 l0 -195 965 0 c531 0 968 -1 973 -2 4 -2 8 86 10 195 l2
197 -975 0 -975 0 0 -195z m564 65 c42 -15 30 -30 -24 -30 -42 0 -52 -4 -66
-25 -30 -45 3 -105 57 -105 24 0 29 4 29 25 0 18 -5 25 -20 25 -11 0 -20 7
-20 15 0 10 11 15 35 15 l35 0 0 -49 c0 -49 0 -49 -38 -56 -52 -9 -89 8 -109
49 -24 50 -5 112 40 131 39 17 48 18 81 5z m762 -11 c24 -20 34 -77 21 -117
-32 -97 -167 -67 -167 37 0 41 22 78 54 91 24 11 73 5 92 -11z m149 11 c36
-14 22 -30 -26 -30 -49 0 -53 -24 -6 -43 64 -27 76 -80 24 -105 -32 -16 -87
-7 -87 13 0 10 9 12 36 8 25 -4 39 -2 45 8 14 22 11 28 -23 42 -18 8 -39 21
-46 30 -20 23 -11 60 18 74 30 15 32 16 65 3z m-415 -25 c0 -8 9 -15 20 -15
11 0 20 -7 20 -15 0 -8 -9 -15 -21 -15 -18 0 -20 -5 -17 -42 2 -36 7 -44 26
-46 26 -4 29 -17 6 -26 -33 -13 -54 12 -54 64 0 28 -4 50 -10 50 -5 0 -10 7
-10 15 0 8 5 15 10 15 6 0 10 7 10 15 0 8 5 15 10 15 6 0 10 -7 10 -15z m-410
-76 c4 -42 9 -55 24 -57 26 -5 36 15 36 71 0 35 4 47 15 47 12 0 15 -14 15
-70 0 -53 -3 -70 -14 -70 -7 0 -27 -3 -44 -6 -45 -9 -72 22 -72 84 0 27 3 52
7 56 16 16 28 -4 33 -55z m224 39 c30 -42 21 -58 -30 -58 -38 0 -45 -3 -42
-17 2 -13 14 -19 41 -21 38 -3 49 -15 21 -26 -52 -20 -94 13 -94 73 0 23 7 46
16 55 23 24 70 20 88 -6z m126 7 c0 -10 -10 -15 -30 -15 -40 0 -38 -13 5 -33
68 -32 30 -98 -47 -82 -41 10 -34 25 12 25 49 0 51 15 5 37 -39 19 -49 37 -35
64 14 24 90 28 90 4z"/>
<path d="M3742 2358 c-30 -30 -5 -118 34 -118 37 0 54 20 54 63 0 49 -13 67
-50 67 -14 0 -31 -5 -38 -12z"/>
<path d="M3315 2320 c-4 -6 5 -10 19 -10 14 0 26 5 26 10 0 6 -9 10 -19 10
-11 0 -23 -4 -26 -10z"/>
<path d="M7710 2320 l0 -200 2040 0 2040 0 0 200 0 200 -2040 0 -2040 0 0
-200z m1070 55 c-3 -5 -19 -10 -36 -10 -44 0 -64 -20 -64 -66 0 -47 21 -69 66
-69 39 0 45 -15 10 -24 -29 -7 -74 8 -92 32 -21 27 -17 95 7 126 18 23 27 27
68 24 26 -2 44 -7 41 -13z m598 4 c-2 -6 -8 -10 -13 -10 -5 0 -11 4 -13 10 -2
6 4 11 13 11 9 0 15 -5 13 -11z m619 -4 c43 -30 38 -131 -8 -155 -10 -6 -38
-10 -63 -10 l-46 0 0 90 0 90 48 0 c26 0 57 -7 69 -15z m-836 -25 c10 0 19 -7
19 -15 0 -8 -9 -15 -20 -15 -17 0 -20 -7 -20 -40 0 -35 4 -42 28 -51 24 -9 25
-12 10 -20 -34 -19 -58 6 -58 61 0 27 -4 52 -10 55 -6 4 -3 16 8 33 14 21 18
23 20 9 2 -9 12 -17 23 -17z m-246 -20 c24 -26 25 -85 2 -107 -20 -20 -73 -21
-92 -2 -8 8 -17 28 -21 44 -13 66 68 112 111 65z m151 9 c20 -17 19 -129 -1
-129 -12 0 -15 13 -15 55 0 40 -4 57 -15 61 -27 11 -45 -16 -45 -67 0 -37 -4
-49 -15 -49 -12 0 -15 14 -15 63 0 35 2 66 4 68 10 10 89 9 102 -2z m232 2 c8
-5 16 -35 19 -70 5 -58 4 -63 -13 -60 -10 2 -29 -1 -41 -5 -31 -10 -63 10 -63
38 0 29 15 41 58 51 27 5 31 9 21 21 -7 8 -20 12 -35 8 -23 -6 -32 5 -17 19 9
10 55 8 71 -2z m77 -61 c0 -42 -4 -65 -12 -67 -10 -4 -13 14 -13 67 0 53 3 71
13 68 8 -3 12 -26 12 -68z m141 59 c20 -17 19 -129 -1 -129 -12 0 -15 13 -15
55 0 40 -4 57 -15 61 -27 11 -45 -16 -45 -67 0 -37 -4 -49 -15 -49 -12 0 -15
14 -15 63 0 35 2 66 4 68 10 10 89 9 102 -2z m148 -11 c30 -42 21 -58 -30 -58
-38 0 -45 -3 -42 -17 2 -13 14 -19 41 -21 20 -2 37 -7 37 -11 0 -14 -40 -20
-65 -11 -67 26 -55 140 15 140 18 0 34 -8 44 -22z m126 12 c0 -5 -12 -15 -27
-22 -24 -11 -28 -20 -31 -61 -5 -72 -22 -56 -22 21 l0 68 40 1 c22 1 40 -2 40
-7z m358 -2 c17 -17 16 -131 0 -125 -7 2 -23 0 -36 -4 -34 -13 -62 6 -62 41 0
25 5 31 40 41 47 14 48 35 1 31 -29 -2 -39 6 -24 21 11 12 68 8 81 -5z m140
-1 c6 -6 13 -24 17 -40 7 -27 6 -27 -40 -27 -39 0 -46 -3 -43 -17 2 -13 14
-19 41 -21 43 -4 49 -17 12 -26 -25 -7 -64 7 -77 28 -13 19 -9 71 8 94 17 25
65 30 82 9z m240 0 c18 -12 16 -127 -3 -127 -10 0 -15 15 -17 57 -2 31 -7 58
-13 60 -22 7 -38 -18 -43 -66 -6 -65 -22 -67 -22 -2 0 52 -16 76 -44 65 -12
-5 -16 -19 -16 -60 0 -41 -4 -54 -15 -54 -12 0 -15 14 -15 63 0 35 2 66 5 68
7 8 169 4 183 -4z m136 7 c23 -9 39 -66 26 -98 -20 -54 -100 -54 -120 0 -25
64 31 122 94 98z m162 -5 c20 -17 19 -129 -1 -129 -12 0 -15 13 -15 55 0 40
-4 57 -15 61 -27 11 -45 -16 -45 -67 0 -37 -4 -49 -15 -49 -12 0 -15 14 -15
63 0 35 2 66 4 68 10 10 89 9 102 -2z"/>
<path d="M9910 2301 c0 -69 1 -71 25 -71 52 0 84 70 53 113 -7 9 -28 20 -45
23 l-33 7 0 -72z"/>
<path d="M8845 2314 c-34 -35 3 -103 43 -78 23 15 27 58 7 78 -9 9 -20 16 -25
16 -5 0 -16 -7 -25 -16z"/>
<path d="M9253 2269 c-28 -10 -30 -39 -4 -39 23 0 48 28 35 39 -5 5 -19 5 -31
0z"/>
<path d="M9602 2318 c-18 -18 -14 -28 11 -28 30 0 40 10 26 27 -14 16 -22 16
-37 1z"/>
<path d="M10092 2269 c-30 -11 -23 -34 9 -34 17 0 25 6 27 23 4 24 -1 26 -36
11z"/>
<path d="M10232 2318 c-18 -18 -14 -28 11 -28 30 0 40 10 26 27 -14 16 -22 16
-37 1z"/>
<path d="M10605 2314 c-20 -20 -16 -63 8 -78 39 -25 76 43 42 78 -9 9 -20 16
-25 16 -5 0 -16 -7 -25 -16z"/>
<path d="M380 1795 l0 -195 2040 0 2040 0 0 195 0 195 -2040 0 -2040 0 0 -195z
m1440 66 c0 -38 0 -38 40 -38 40 0 40 0 40 39 0 32 3 39 18 36 15 -3 17 -16
17 -93 0 -73 -3 -90 -15 -90 -10 0 -16 12 -18 38 -3 36 -4 37 -42 37 -37 0
-39 -1 -42 -37 -2 -20 -9 -38 -15 -41 -10 -3 -13 20 -13 92 0 79 3 96 15 96
11 0 15 -11 15 -39z m830 24 c0 -8 -7 -15 -15 -15 -8 0 -15 7 -15 15 0 8 7 15
15 15 8 0 15 -7 15 -15z m-443 -51 c21 -21 24 -32 20 -61 -8 -47 -23 -63 -63
-63 -28 0 -33 -4 -36 -27 -2 -14 -9 -28 -15 -31 -10 -3 -13 21 -13 98 0 81 3
101 13 97 8 -3 20 -1 28 4 23 14 38 10 66 -17z m130 18 c15 -10 35 -61 27 -73
-3 -5 -23 -9 -45 -9 -52 0 -48 -24 5 -28 47 -4 43 -26 -6 -30 -29 -2 -40 2
-57 24 -28 35 -27 69 4 99 24 25 50 31 72 17z m149 2 c14 -4 26 -20 34 -45 7
-21 16 -39 20 -39 4 0 13 18 20 40 9 27 19 40 31 40 17 0 17 -3 -3 -57 -27
-75 -43 -93 -61 -73 -8 8 -22 36 -31 63 -29 77 -76 57 -76 -33 0 -29 -4 -40
-12 -38 -8 3 -14 29 -16 73 -3 64 -2 67 18 62 11 -3 23 -1 26 4 6 10 20 11 50
3z m271 0 c30 -8 19 -24 -16 -24 -42 0 -46 -12 -10 -30 69 -33 64 -83 -10 -88
-32 -2 -41 0 -41 12 0 12 10 16 35 16 19 0 35 4 35 10 0 5 -16 16 -35 24 -27
12 -35 21 -35 40 0 36 31 52 77 40z m148 -19 c47 -47 23 -125 -39 -125 -43 0
-70 30 -70 77 0 25 7 41 23 54 31 26 57 24 86 -6z m133 7 c2 -7 -5 -12 -17
-12 -26 0 -41 -28 -41 -80 0 -29 -4 -40 -12 -38 -8 3 -14 29 -16 73 -3 63 -2
67 16 63 11 -3 26 -2 33 3 17 11 31 7 37 -9z m-1039 -32 c6 -22 15 -40 20 -40
4 0 13 18 20 40 7 23 18 40 26 40 19 0 20 5 -16 -94 -32 -89 -47 -110 -75
-104 -25 5 -30 28 -6 28 33 0 35 33 7 101 -30 74 -29 69 -7 69 13 0 22 -12 31
-40z m651 -30 c0 -56 -3 -70 -15 -70 -12 0 -15 14 -15 70 0 56 3 70 15 70 12
0 15 -14 15 -70z"/>
<path d="M2134 1817 c-3 -9 -4 -28 -2 -44 2 -22 8 -28 28 -28 23 0 25 4 25 40
0 34 -3 40 -23 43 -13 2 -24 -3 -28 -11z"/>
<path d="M2287 1824 c-14 -14 -6 -24 19 -24 16 0 24 5 22 13 -5 14 -31 21 -41
11z"/>
<path d="M2834 1806 c-10 -41 -1 -61 28 -64 23 -3 29 2 34 24 8 33 -6 58 -34
62 -16 2 -23 -3 -28 -22z"/>
<path d="M7710 1780 l0 -200 2040 0 2040 0 0 200 0 200 -2040 0 -2040 0 0
-200z m732 53 c3 -38 3 -38 48 -38 45 0 45 0 48 38 6 73 22 35 22 -53 0 -88
-16 -126 -22 -52 -3 37 -3 37 -48 37 -47 0 -45 2 -49 -57 -1 -10 -5 -18 -11
-18 -6 0 -10 37 -10 90 0 88 16 126 22 53z m702 26 c50 -23 59 -115 15 -155
-31 -28 -87 -24 -115 10 -66 76 10 186 100 145z m726 -4 c0 -8 -4 -15 -10 -15
-5 0 -10 7 -10 15 0 8 5 15 10 15 6 0 10 -7 10 -15z m484 9 c26 -10 18 -27 -8
-20 -56 14 -79 -32 -27 -54 16 -6 37 -20 46 -30 36 -39 -15 -88 -77 -75 -43
10 -33 25 17 25 38 0 45 3 45 20 0 13 -13 26 -39 39 -43 23 -56 44 -41 71 15
27 50 37 84 24z m-1454 -28 c0 -8 10 -17 23 -19 l22 -4 -22 -8 c-19 -6 -23
-15 -23 -52 0 -36 4 -46 20 -50 11 -3 17 -9 14 -14 -7 -11 -25 -11 -43 0 -19
12 -32 120 -17 144 13 21 26 22 26 3z m890 0 c0 -8 10 -17 23 -19 l22 -4 -22
-8 c-19 -6 -23 -15 -23 -52 0 -36 4 -46 20 -50 11 -3 17 -9 14 -14 -7 -11 -25
-11 -43 0 -19 12 -32 120 -17 144 13 21 26 22 26 3z m890 -1 c0 -8 9 -15 20
-15 11 0 20 -4 20 -10 0 -5 -9 -10 -20 -10 -17 0 -20 -7 -20 -45 0 -38 4 -47
22 -54 14 -5 17 -10 10 -15 -6 -4 -21 -2 -32 4 -16 8 -20 21 -20 58 0 27 -5
53 -12 60 -9 9 -9 12 0 12 7 0 12 7 12 15 0 8 5 15 10 15 6 0 10 -7 10 -15z
m-1986 -26 c44 -35 32 -110 -20 -123 -75 -19 -114 105 -42 134 32 12 32 12 62
-11z m136 -1 c0 -5 -12 -7 -26 -6 -40 4 -40 -17 1 -40 43 -26 47 -58 9 -73
-29 -10 -64 -4 -64 13 0 5 7 7 16 4 20 -8 54 2 54 15 0 5 -16 17 -35 26 -52
25 -57 56 -12 72 24 9 57 3 57 -11z m498 -6 c6 -9 12 -33 12 -54 0 -46 -32
-73 -74 -62 -24 6 -26 4 -26 -25 0 -17 -4 -31 -10 -31 -6 0 -10 39 -10 96 0
73 3 95 13 91 6 -2 21 -1 32 3 24 9 46 2 63 -18z m130 12 c12 -8 22 -26 22
-40 0 -21 -4 -24 -39 -24 -22 0 -42 -4 -46 -9 -9 -16 27 -43 52 -38 31 6 39
-9 9 -17 -31 -8 -71 7 -80 29 -17 44 -1 96 34 108 23 8 24 8 48 -9z m132 -5
c0 -5 -9 -9 -19 -9 -23 0 -31 -19 -31 -71 0 -21 -4 -39 -10 -39 -6 0 -10 29
-10 66 0 51 3 65 13 61 8 -3 20 -1 27 3 15 10 30 4 30 -11z m128 -57 c3 -53 1
-61 -15 -61 -10 1 -27 -2 -39 -6 -23 -7 -54 16 -54 40 0 19 39 45 67 45 13 0
23 6 23 14 0 18 -22 26 -49 19 -12 -3 -21 -1 -21 5 0 13 39 20 65 11 17 -5 21
-17 23 -67z m292 58 c25 -25 29 -120 5 -120 -11 0 -15 13 -15 54 0 41 -4 55
-17 60 -25 10 -45 -16 -50 -68 -8 -68 -23 -56 -23 18 l0 65 33 4 c17 2 35 5
40 5 4 1 16 -7 27 -18z m147 10 c19 0 23 -3 15 -12 -5 -7 -12 -24 -14 -38 -2
-18 -12 -27 -35 -34 -43 -12 -42 -26 1 -26 44 0 63 -22 48 -55 -8 -17 -20 -25
-39 -26 -66 -3 -94 17 -75 53 15 31 17 48 7 82 -7 24 -4 33 15 48 13 10 30 16
37 13 8 -3 26 -5 40 -5z m454 0 c5 0 9 -5 9 -11 0 -7 -9 -9 -23 -6 -12 4 -29
2 -37 -4 -13 -8 -12 -11 4 -24 11 -8 26 -15 33 -15 7 0 17 -9 23 -20 8 -15 6
-24 -10 -40 -21 -21 -37 -24 -64 -14 -27 10 -18 22 16 20 45 -2 49 26 6 45
-42 18 -50 55 -16 68 13 6 29 8 36 5 8 -2 18 -4 23 -4z m227 -13 c6 -5 12 -20
12 -33 0 -21 -5 -24 -39 -24 -46 0 -58 -12 -35 -35 11 -10 25 -14 40 -11 27 7
33 -8 8 -18 -24 -9 -63 4 -74 24 -14 26 -12 73 3 92 21 28 53 29 85 5z m155
11 c9 1 29 2 43 3 15 1 30 -5 35 -12 12 -19 11 -119 -1 -119 -5 0 -10 22 -10
48 0 44 -12 72 -31 72 -21 0 -39 -35 -39 -76 0 -24 -4 -44 -10 -44 -5 0 -10
24 -10 54 0 41 -4 55 -16 60 -28 11 -44 -13 -44 -65 0 -37 -4 -49 -15 -49 -12
0 -15 14 -15 66 0 58 2 65 18 60 9 -3 24 -1 32 4 8 5 22 7 30 3 8 -3 23 -5 33
-5z m-1123 -63 c0 -37 -4 -65 -10 -65 -6 0 -10 28 -10 65 0 37 4 65 10 65 6 0
10 -28 10 -65z m551 53 c0 -7 8 -31 18 -53 l18 -40 17 53 c10 28 22 52 27 52
14 0 11 -15 -22 -101 -31 -81 -43 -94 -76 -86 -14 3 -12 6 11 16 33 13 33 33
-2 119 -18 43 -19 52 -7 52 8 0 15 -6 16 -12z"/>
<path d="M9072 1834 c-17 -11 -22 -25 -22 -58 0 -50 13 -66 55 -66 42 0 55 16
55 66 0 33 -5 47 -22 58 -12 9 -27 16 -33 16 -6 0 -21 -7 -33 -16z"/>
<path d="M8637 1799 c-21 -12 -23 -72 -2 -89 32 -26 78 22 62 64 -9 23 -40 36
-60 25z"/>
<path d="M9261 1801 c-31 -20 -14 -100 21 -101 15 0 38 33 38 55 0 22 -23 55
-38 55 -4 0 -14 -4 -21 -9z"/>
<path d="M9406 1794 c-22 -22 -21 -24 19 -24 39 0 46 14 16 30 -15 7 -23 6
-35 -6z"/>
<path d="M9643 1734 c-3 -8 -1 -20 5 -26 13 -13 52 7 52 27 0 20 -49 19 -57
-1z"/>
<path d="M10090 1795 c-11 -13 -11 -19 3 -32 21 -21 49 -9 45 19 -4 28 -30 35
-48 13z"/>
<path d="M10075 1680 c-12 -19 10 -32 46 -28 48 4 46 32 -3 36 -20 2 -39 -2
-43 -8z"/>
<path d="M10776 1794 c-22 -22 -21 -24 19 -24 39 0 46 14 16 30 -15 7 -23 6
-35 -6z"/>
<path d="M380 1255 l0 -195 2040 0 2040 0 0 195 0 195 -2040 0 -2040 0 0 -195z
m730 55 l0 -40 44 0 c44 0 45 0 48 37 2 20 9 38 16 41 9 3 12 -20 12 -92 0
-79 -3 -96 -15 -96 -11 0 -15 12 -15 46 l0 45 -42 -3 c-43 -3 -43 -3 -46 -46
-2 -28 -7 -42 -15 -39 -13 4 -22 126 -12 164 9 37 25 26 25 -17z m721 11 c33
-33 38 -75 14 -120 -16 -32 -33 -41 -79 -41 -57 0 -93 59 -75 125 19 68 89 86
140 36z m709 14 c0 -8 -4 -15 -9 -15 -13 0 -22 16 -14 24 11 11 23 6 23 -9z
m484 9 c29 -11 16 -24 -24 -24 -33 0 -40 -3 -40 -20 0 -13 13 -26 37 -37 51
-25 61 -45 40 -77 -15 -22 -25 -26 -62 -26 -34 0 -45 4 -45 16 0 12 7 14 30 9
32 -7 60 7 60 29 0 7 -20 22 -45 34 -33 16 -45 28 -45 44 0 44 47 70 94 52z
m-1454 -29 c0 -8 9 -15 20 -15 11 0 20 -4 20 -10 0 -5 -9 -10 -20 -10 -17 0
-20 -7 -20 -46 0 -37 4 -47 20 -51 27 -7 25 -23 -3 -23 -35 0 -47 19 -47 71 0
27 -5 49 -12 51 -7 3 -5 12 8 26 22 26 34 28 34 7z m890 1 c0 -8 10 -17 23
-19 l22 -4 -22 -8 c-19 -6 -23 -15 -23 -51 0 -37 4 -46 23 -53 21 -8 21 -9 3
-17 -32 -13 -51 9 -54 62 -2 27 -8 51 -14 55 -6 4 -3 14 8 28 21 24 34 27 34
7z m890 -1 c0 -8 9 -15 20 -15 11 0 20 -4 20 -10 0 -5 -9 -10 -20 -10 -17 0
-20 -7 -20 -46 0 -37 4 -47 20 -51 30 -8 24 -25 -7 -21 -26 3 -28 6 -31 58 -2
30 -9 58 -15 63 -9 7 -9 10 1 14 6 2 12 11 12 19 0 8 5 14 10 14 6 0 10 -7 10
-15z m-1975 -38 c35 -50 6 -117 -50 -117 -38 0 -65 28 -65 68 0 71 77 103 115
49z m125 12 c0 -5 -13 -9 -29 -9 -45 0 -46 -17 -4 -37 64 -31 53 -83 -18 -83
-27 0 -39 4 -39 14 0 11 9 13 35 9 48 -8 47 18 -1 46 -42 25 -45 61 -4 71 29
7 60 2 60 -11z m502 -13 c13 -19 9 -71 -8 -94 -11 -15 -25 -22 -50 -22 -31 0
-34 -2 -34 -30 0 -16 -4 -30 -10 -30 -6 0 -10 40 -10 101 0 77 3 100 13 96 6
-2 21 -1 32 3 21 8 54 -4 67 -24z m136 11 c6 -5 12 -22 12 -38 0 -28 -2 -29
-45 -29 -25 0 -45 -4 -45 -9 0 -16 29 -33 52 -30 13 2 25 -1 28 -6 9 -18 -66
-17 -84 0 -64 64 11 167 82 112z m122 5 c0 -4 -10 -12 -22 -17 -18 -8 -24 -20
-28 -59 -3 -27 -11 -51 -17 -54 -10 -3 -13 15 -13 68 0 66 2 72 19 67 10 -2
25 -1 32 4 13 8 29 3 29 -9z m128 -63 l3 -65 -45 -2 c-49 -2 -69 14 -64 50 2
17 12 25 41 32 46 12 52 41 7 34 -17 -3 -33 -1 -36 4 -8 13 38 26 66 18 23 -6
25 -11 28 -71z m303 49 c13 -25 7 -110 -8 -115 -8 -3 -13 14 -15 54 -2 48 -6
58 -22 61 -28 6 -46 -25 -46 -75 0 -24 -4 -43 -10 -43 -6 0 -10 30 -10 71 0
53 3 70 13 66 6 -2 21 -1 32 3 27 10 54 1 66 -22z m159 11 c0 -5 -4 -9 -10 -9
-5 0 -10 -10 -10 -23 0 -29 -18 -47 -47 -47 -13 0 -23 -4 -23 -10 0 -5 13 -10
29 -10 31 0 61 -22 61 -45 0 -23 -45 -47 -81 -43 -40 4 -59 30 -42 57 7 11 10
39 7 69 -4 42 -1 53 15 64 21 15 101 12 101 -3z m431 11 c5 0 9 -4 9 -10 0 -5
-16 -10 -35 -10 -22 0 -35 -5 -35 -13 0 -7 16 -19 35 -26 29 -10 35 -17 35
-41 0 -32 -25 -45 -71 -38 -36 5 -28 22 10 22 47 1 48 17 3 41 -23 13 -37 27
-37 40 0 21 42 48 63 40 8 -3 18 -5 23 -5z m227 -18 c6 -9 12 -26 12 -39 0
-21 -5 -23 -45 -23 -43 0 -45 -1 -34 -21 8 -17 17 -20 40 -15 22 4 29 2 29 -9
0 -18 -51 -21 -80 -5 -24 13 -36 71 -20 100 21 39 71 45 98 12z m180 15 c48 8
62 -10 62 -79 0 -80 -24 -75 -28 5 -3 48 -6 57 -22 57 -25 0 -40 -29 -40 -79
0 -63 -19 -49 -22 17 -3 53 -5 57 -28 57 -23 0 -25 -4 -30 -54 -3 -31 -10 -56
-17 -59 -10 -3 -13 15 -13 68 0 54 3 71 13 67 6 -2 21 -1 32 3 11 4 29 4 40 0
11 -4 35 -5 53 -3z m-1148 -68 c0 -52 -3 -70 -12 -67 -8 3 -14 29 -16 71 -2
55 0 67 13 67 12 0 15 -14 15 -71z m550 61 c0 -6 7 -27 16 -48 l16 -37 14 40
c16 44 30 62 40 52 9 -8 -44 -157 -64 -179 -16 -19 -52 -25 -52 -9 0 5 9 12
19 16 31 10 32 32 6 97 -29 72 -30 78 -10 78 8 0 15 -5 15 -10z"/>
<path d="M1726 1298 c-23 -32 -20 -65 9 -93 29 -30 49 -31 75 -5 22 22 26 70
10 101 -15 28 -74 26 -94 -3z"/>
<path d="M1297 1273 c-4 -3 -7 -21 -7 -38 0 -40 24 -64 48 -48 35 22 26 93
-12 93 -12 0 -26 -3 -29 -7z"/>
<path d="M1920 1258 c-8 -16 -8 -32 -1 -51 19 -50 65 -24 59 35 -4 42 -42 53
-58 16z"/>
<path d="M2066 1265 c-4 -11 2 -15 24 -15 20 0 30 5 30 15 0 9 -9 15 -24 15
-13 0 -26 -7 -30 -15z"/>
<path d="M2316 1217 c-16 -12 -16 -14 -2 -26 20 -17 42 -9 49 18 6 25 -19 29
-47 8z"/>
<path d="M2756 1271 c-10 -16 5 -41 24 -41 19 0 30 17 23 38 -5 14 -39 16 -47
3z"/>
<path d="M2747 1153 c-12 -11 -8 -21 13 -28 21 -7 60 10 60 25 0 11 -63 14
-73 3z"/>
<path d="M3437 1266 c-5 -12 1 -16 24 -16 20 0 29 4 27 13 -7 18 -45 20 -51 3z"/>
<path d="M7710 1245 l0 -195 2040 0 2040 0 0 195 0 195 -2040 0 -2040 0 0
-195z m1480 96 c0 -5 -10 -11 -22 -13 -30 -4 -37 -38 -9 -38 12 0 21 -4 21
-10 0 -5 -9 -10 -20 -10 -18 0 -20 -7 -20 -61 0 -37 -4 -58 -10 -54 -5 3 -10
30 -10 60 0 33 -5 56 -12 59 -10 5 -10 7 0 12 6 3 12 13 12 23 0 9 5 22 12 29
14 14 58 16 58 3z m-272 -99 c-4 -107 -22 -112 -26 -8 -3 86 2 116 19 99 5 -5
9 -46 7 -91z m672 64 c0 -8 10 -17 23 -19 l22 -4 -22 -8 c-19 -6 -23 -15 -23
-51 0 -37 4 -46 22 -53 27 -10 7 -25 -22 -16 -17 5 -20 15 -20 60 0 33 -5 56
-12 59 -10 5 -10 7 0 12 6 3 12 12 12 20 0 8 5 14 10 14 6 0 10 -6 10 -14z
m481 -16 c10 0 19 -4 19 -10 0 -5 -9 -10 -20 -10 -17 0 -20 -7 -20 -46 0 -37
4 -47 20 -51 25 -7 26 -23 2 -23 -30 0 -42 21 -42 72 0 26 -5 48 -10 48 -6 0
-3 12 7 27 14 22 19 24 21 10 2 -9 12 -17 23 -17z m-1003 -73 c2 -46 -1 -67
-8 -62 -5 3 -10 31 -10 61 0 53 -1 54 -29 54 -32 0 -41 -17 -41 -82 0 -21 -4
-38 -10 -38 -6 0 -10 30 -10 69 l0 69 53 -2 52 -1 3 -68z m152 61 c0 -9 3 -9
12 0 15 15 48 16 48 2 0 -5 -9 -10 -20 -10 -24 0 -40 -35 -40 -86 0 -21 -4
-33 -10 -29 -5 3 -10 35 -10 71 0 36 4 64 10 64 6 0 10 -5 10 -12z m178 -58
l3 -65 -38 1 c-55 1 -60 2 -67 20 -10 26 12 53 49 60 47 9 47 34 -1 34 -22 0
-33 4 -29 11 4 5 23 9 43 7 l37 -3 3 -65z m132 60 c0 -5 -16 -10 -35 -10 -45
0 -46 -21 -3 -41 58 -25 45 -79 -18 -79 -43 0 -45 18 -2 22 44 4 47 25 5 43
-64 27 -55 75 14 75 22 0 39 -4 39 -10z m200 -1 c0 -5 -9 -9 -20 -9 -25 0 -40
-29 -40 -80 0 -25 -4 -39 -10 -35 -5 3 -10 34 -10 68 l0 63 40 1 c22 1 40 -2
40 -8z m50 -44 c0 -42 4 -57 16 -62 31 -12 49 11 52 66 4 75 22 62 22 -16 l0
-68 -47 0 c-40 0 -49 4 -60 25 -13 27 -18 92 -6 103 16 17 23 3 23 -48z m220
45 c0 -5 -13 -10 -30 -10 -36 0 -52 -26 -41 -66 6 -23 14 -30 39 -32 37 -4 34
-22 -4 -22 -54 0 -82 69 -48 118 11 15 25 22 50 22 19 0 34 -4 34 -10z m140
-34 c0 -56 8 -76 29 -76 29 0 41 22 41 72 0 26 5 48 10 48 6 0 10 -29 10 -67
l0 -68 -42 -2 c-23 -2 -47 2 -55 8 -15 13 -18 129 -3 129 6 0 10 -20 10 -44z
m210 33 c0 -5 -9 -9 -20 -9 -25 0 -40 -29 -40 -80 0 -25 -4 -39 -10 -35 -5 3
-10 34 -10 68 l0 63 40 1 c22 1 40 -2 40 -8z m118 -1 c5 -7 13 -23 16 -35 7
-21 4 -23 -37 -23 -51 0 -60 -6 -46 -31 7 -13 21 -19 45 -19 21 0 33 -4 29
-10 -11 -17 -64 -11 -85 10 -24 24 -26 77 -3 102 18 21 66 24 81 6z"/>
<path d="M9323 1204 c-3 -8 0 -21 6 -27 14 -14 44 2 49 27 5 22 -46 22 -55 0z"/>
<path d="M10405 1261 c-3 -6 -4 -15 -1 -20 8 -12 58 -1 53 13 -5 15 -43 20
-52 7z"/>
<path d="M380 725 l0 -195 2040 0 2040 0 0 195 0 195 -2040 0 -2040 0 0 -195z
m1475 95 c3 -6 -5 -14 -19 -20 -32 -12 -33 -25 -3 -35 l22 -8 -22 -4 c-21 -4
-23 -10 -23 -64 0 -33 -4 -59 -10 -59 -10 0 -12 8 -14 73 0 21 -7 42 -16 47
-12 8 -12 10 3 16 9 3 17 14 17 23 0 33 49 57 65 31z m-265 -100 c0 -73 -3
-90 -15 -90 -12 0 -15 17 -15 90 0 73 3 90 15 90 12 0 15 -17 15 -90z m670 65
c0 -8 7 -15 15 -15 8 0 15 -4 15 -10 0 -5 -7 -10 -15 -10 -11 0 -15 -12 -15
-50 0 -43 3 -50 20 -50 11 0 20 -4 20 -10 0 -14 -46 -12 -58 3 -12 15 -18 116
-8 140 10 21 26 23 26 2z m460 0 c0 -8 9 -15 20 -15 11 0 20 -4 20 -10 0 -5
-9 -10 -20 -10 -17 0 -20 -7 -20 -46 0 -37 4 -47 20 -51 30 -8 24 -25 -7 -21
-26 3 -28 6 -31 58 -2 30 -9 58 -15 63 -9 7 -9 10 1 14 6 2 12 11 12 19 0 8 5
14 10 14 6 0 10 -7 10 -15z m-994 -26 c16 -13 20 -129 4 -129 -5 0 -10 20 -10
44 0 56 -8 76 -29 76 -29 0 -41 -22 -41 -72 0 -26 -4 -48 -9 -48 -12 0 -17 33
-13 91 l4 46 40 1 c23 1 47 -3 54 -9z m164 -1 c0 -9 3 -9 12 0 14 14 48 16 48
3 0 -5 -11 -12 -24 -15 -25 -6 -36 -31 -36 -83 0 -18 -4 -33 -10 -33 -6 0 -10
30 -10 70 0 40 4 70 10 70 6 0 10 -5 10 -12z m174 -4 c3 -9 6 -40 6 -69 l0
-53 -52 2 c-47 1 -53 4 -56 24 -5 31 13 50 53 58 44 8 37 38 -6 32 -20 -3 -29
0 -29 9 0 20 76 17 84 -3z m131 6 c4 -6 -8 -10 -29 -10 -46 0 -47 -21 -3 -41
35 -15 49 -55 25 -70 -18 -12 -88 -11 -88 0 0 6 17 11 37 13 48 4 52 20 8 41
-41 19 -53 41 -35 62 14 17 75 20 85 5z m205 -1 c0 -5 -6 -9 -14 -9 -28 0 -46
-30 -46 -76 0 -24 -4 -44 -10 -44 -6 0 -10 29 -10 68 l0 68 40 1 c22 1 40 -2
40 -8z m52 -46 c3 -54 5 -58 28 -58 23 0 25 4 30 54 8 84 30 79 30 -7 l0 -69
-50 -2 c-59 -2 -70 12 -70 88 0 38 4 51 15 51 10 0 15 -15 17 -57z m218 48 c0
-6 -15 -11 -32 -13 -25 -2 -35 -9 -42 -31 -13 -37 2 -61 43 -65 17 -2 31 -7
31 -13 0 -15 -67 -10 -84 7 -21 20 -20 83 1 106 17 19 83 26 83 9z m142 -48
c3 -51 6 -58 25 -61 27 -4 43 28 43 84 0 19 5 34 10 34 6 0 10 -29 10 -68 l0
-69 -49 -2 c-27 -1 -52 3 -55 8 -8 13 -16 113 -10 123 13 21 23 3 26 -49z
m208 47 c0 -6 -6 -10 -14 -10 -28 0 -46 -30 -46 -76 0 -24 -4 -44 -10 -44 -6
0 -10 29 -10 68 l0 69 40 1 c22 1 40 -3 40 -8z m125 -22 c7 -18 11 -36 9 -40
-3 -5 -25 -8 -50 -8 -42 0 -44 -1 -34 -20 8 -14 21 -20 46 -20 21 0 33 -4 29
-10 -10 -16 -72 -12 -89 6 -9 9 -16 32 -16 54 0 46 21 70 61 70 24 0 33 -6 44
-32z"/>
<path d="M2008 693 c-10 -2 -18 -13 -18 -24 0 -25 36 -25 50 0 17 32 12 36
-32 24z"/>
<path d="M3077 744 c-16 -16 -6 -34 19 -34 19 0 25 5 22 17 -3 19 -29 29 -41
17z"/>
</g>
</svg>
