<?xml version="1.0" encoding="iso-8859-1"?>
<!-- Generator: Adobe Illustrator 19.0.0, SVG Export Plug-In . SVG Version: 6.00 Build 0)  -->
<svg version="1.1" id="Capa_1" xmlns="http://www.w3.org/2000/svg" xmlns:xlink="http://www.w3.org/1999/xlink" x="0px" y="0px"
	 viewBox="0 0 60 60" xml:space="preserve" style="fill:#0099ff">
<g>
	<g>
		<path d="M30,25v-2h-6.1c-0.5-3.4-3.4-6-6.9-6H7c-3.9,0-7,3.1-7,7v14h2V24c0-2.8,2.2-5,5-5h1v8H7v-2H5v34c0,0.6,0.4,1,1,1h6h6
			c0.6,0,1-0.4,1-1V25h-2v2h-1v-8h1c2.8,0,5,2.2,5,5c0,0.6,0.4,1,1,1H30z M17,58h-4V40h2v-2H9v2h2v18H7V29h10V58z M14,27h-4v-8h4V27
			z"/>
		<path d="M6,11c0,2.8,2.2,5,5,5h2c2.8,0,5-2.2,5-5V9h2V7h-2V5c0-2.8-2.2-5-5-5h-2C8.2,0,6,2.2,6,5v2H4v2h2V11z M16,11
			c0,1.7-1.3,3-3,3h-2c-1.7,0-3-1.3-3-3V9h8V11z M8,5c0-1.7,1.3-3,3-3v3h2V2c1.7,0,3,1.3,3,3v2H8V5z"/>
		<rect x="9" y="32" width="2" height="2"/>
		<rect x="13" y="32" width="2" height="2"/>
		<path d="M59,20H49h-6H33c-0.6,0-1,0.4-1,1v21h-1h-6c-0.6,0-1,0.4-1,1v16c0,0.6,0.4,1,1,1h16h18c0.6,0,1-0.4,1-1V43V21
			C60,20.4,59.6,20,59,20z M48,22v6h-4v-6H48z M34,22h8v7c0,0.6,0.4,1,1,1h6c0.6,0,1-0.4,1-1v-7h8v20h-6h-4h-7h-6h-1V22z M49,44h2v4
			h-2V44z M33,44h1v4h-2v-4H33z M26,44h4v5c0,0.6,0.4,1,1,1h4c0.6,0,1-0.4,1-1v-5h4v14H26V44z M58,58H42V44h5v5c0,0.6,0.4,1,1,1h4
			c0.6,0,1-0.4,1-1v-5h5V58z"/>
		<rect x="23" y="28" width="7" height="2"/>
		<rect x="28" y="53" width="2" height="2"/>
		<rect x="32" y="53" width="2" height="2"/>
		<rect x="44" y="53" width="2" height="2"/>
		<rect x="48" y="53" width="2" height="2"/>
		<rect x="37" y="34" width="4" height="2"/>
		<rect x="37" y="38" width="8" height="2"/>
	</g>
</g>
<g>
</g>
<g>
</g>
<g>
</g>
<g>
</g>
<g>
</g>
<g>
</g>
<g>
</g>
<g>
</g>
<g>
</g>
<g>
</g>
<g>
</g>
<g>
</g>
<g>
</g>
<g>
</g>
<g>
</g>
</svg>
