<?xml version="1.0" encoding="iso-8859-1"?>
<!-- Generator: Adobe Illustrator 19.0.0, SVG Export Plug-In . SVG Version: 6.00 Build 0)  -->
<svg version="1.1" id="Layer_1" xmlns="http://www.w3.org/2000/svg" xmlns:xlink="http://www.w3.org/1999/xlink" x="0px" y="0px"
	 viewBox="0 0 504.986 504.986" style="enable-background:new 0 0 504.986 504.986;" xml:space="preserve">
<g>
	<rect x="28.055" y="110.115" style="fill:#FFFFFF;" width="448.877" height="202.696"/>
	<rect x="139.573" y="453.786" style="fill:#FFFFFF;" width="40.679" height="23.145"/>
	<rect x="324.734" y="453.786" style="fill:#FFFFFF;" width="40.679" height="23.145"/>
</g>
<g>
	<rect x="93.984" y="340.866" style="fill:#56ACE0;" width="317.019" height="84.866"/>
	<rect x="133.26" y="28.055" style="fill:#56ACE0;" width="30.86" height="54.005"/>
	<rect x="340.866" y="28.055" style="fill:#56ACE0;" width="30.86" height="54.005"/>
</g>
<path style="fill:#194F82;" d="M490.959,82.06h-91.178V14.027C399.781,6.312,393.469,0,385.753,0h-58.915
	c-7.715,0-14.027,6.312-14.027,14.027V82.06H192.175V14.027C192.175,6.312,185.863,0,178.148,0h-58.915
	c-7.715,0-14.027,6.312-14.027,14.027V82.06H14.027C6.312,82.06,0,88.373,0,96.088v230.751c0,7.715,6.312,14.027,14.027,14.027
	h51.901v98.893c0,7.715,6.312,14.027,14.027,14.027h31.562v37.173c0,7.715,6.312,14.027,14.027,14.027h68.734
	c7.715,0,14.027-6.312,14.027-14.027v-37.173h88.373v37.173c0,7.715,6.312,14.027,14.027,14.027h68.734
	c7.715,0,14.027-6.312,14.027-14.027v-37.173h31.562c7.715,0,14.027-6.312,14.027-14.027v-98.893h51.901
	c7.715,0,14.027-6.312,14.027-14.027V96.088C504.986,88.373,498.674,82.06,490.959,82.06z M476.932,312.811H28.055V110.115h448.877
	V312.811z M411.003,425.732H93.984v-84.866h317.019V425.732z M365.414,476.932h-40.679v-23.145h40.679V476.932z M180.252,476.932
	h-40.679v-23.145h40.679V476.932z M133.26,28.055h30.86V82.06h-30.86V28.055z M340.866,28.055h30.86V82.06h-30.86V28.055z"/>
<rect x="56.11" y="138.17" style="fill:#FFC10D;" width="392.767" height="146.586"/>
<g>
	<path style="fill:#194F82;" d="M332.449,393.468H358.4c7.715,0,14.027-6.312,14.027-14.027s-6.312-14.027-14.027-14.027h-25.951
		c-7.715,0-14.027,6.312-14.027,14.027S324.734,393.468,332.449,393.468z"/>
	<path style="fill:#194F82;" d="M146.586,393.468h25.951c7.715,0,14.027-6.312,14.027-14.027s-6.312-14.027-14.027-14.027h-25.951
		c-7.715,0-14.027,6.312-14.027,14.027S138.871,393.468,146.586,393.468z"/>
	<path style="fill:#194F82;" d="M93.984,280.548c7.715,0,14.027-6.312,14.027-14.027V156.405c0-7.715-6.312-14.027-14.027-14.027
		s-14.027,6.312-14.027,14.027v110.115C79.956,274.236,86.269,280.548,93.984,280.548z"/>
	<path style="fill:#194F82;" d="M173.238,280.548c7.715,0,14.027-6.312,14.027-14.027V156.405c0-7.715-6.312-14.027-14.027-14.027
		s-14.027,6.312-14.027,14.027v110.115C159.211,274.236,165.523,280.548,173.238,280.548z"/>
	<path style="fill:#194F82;" d="M252.493,280.548c7.715,0,14.027-6.312,14.027-14.027V156.405c0-7.715-6.312-14.027-14.027-14.027
		c-7.715,0-14.027,6.312-14.027,14.027v110.115C238.466,274.236,244.778,280.548,252.493,280.548z"/>
	<path style="fill:#194F82;" d="M331.748,280.548c7.715,0,14.027-6.312,14.027-14.027V156.405c0-7.715-6.312-14.027-14.027-14.027
		s-14.027,6.312-14.027,14.027v110.115C317.721,274.236,324.033,280.548,331.748,280.548z"/>
	<path style="fill:#194F82;" d="M411.003,280.548c7.715,0,14.027-6.312,14.027-14.027V156.405c0-7.715-6.312-14.027-14.027-14.027
		s-14.027,6.312-14.027,14.027v110.115C396.975,274.236,403.288,280.548,411.003,280.548z"/>
</g>
<g>
</g>
<g>
</g>
<g>
</g>
<g>
</g>
<g>
</g>
<g>
</g>
<g>
</g>
<g>
</g>
<g>
</g>
<g>
</g>
<g>
</g>
<g>
</g>
<g>
</g>
<g>
</g>
<g>
</g>
</svg>
