<?xml version="1.0" encoding="iso-8859-1"?>
<!-- Generator: Adobe Illustrator 19.0.0, SVG Export Plug-In . SVG Version: 6.00 Build 0)  -->
<svg version="1.1" id="Layer_1" xmlns="http://www.w3.org/2000/svg" xmlns:xlink="http://www.w3.org/1999/xlink" x="0px" y="0px"
	 viewBox="0 0 512 512" style="enable-background:new 0 0 512 512;" xml:space="preserve">
<polygon style="fill:#086063;" points="397.597,403.158 114.403,403.158 0,493.18 511.999,493.18 "/>
<polygon style="fill:#EEA0B6;" points="375.091,86.337 136.909,86.337 114.403,302.743 397.597,302.743 "/>
<g>
	<polygon style="fill:#20AAB0;" points="114.403,280.237 136.909,425.663 170.667,403.158 203.622,280.237 	"/>
	<polygon style="fill:#20AAB0;" points="397.597,280.237 308.378,280.237 341.333,403.158 375.091,425.663 	"/>
</g>
<polygon style="fill:#06484A;" points="375.091,425.663 308.378,280.237 203.622,280.237 136.909,425.663 "/>
<circle style="fill:#EA4820;" cx="256" cy="183.285" r="41.95"/>
<polygon style="fill:#E4769A;" points="136.909,86.337 0,18.82 0,289.883 68.454,307.518 136.909,280.237 "/>
<polygon style="fill:#14858A;" points="0,289.883 0,493.18 136.909,425.663 136.909,280.237 "/>
<polygon style="fill:#E4769A;" points="512,18.82 375.091,86.337 375.091,280.237 433.755,306.876 512,293.557 "/>
<polygon style="fill:#14858A;" points="375.091,280.237 375.091,425.663 512,493.18 512,289.883 449.746,285.497 "/>
<g>
	<path style="fill:#FFFFFF;" d="M256,341.091c-4.662,0-8.44-3.779-8.44-8.44v-20.255c0-4.661,3.778-8.44,8.44-8.44
		c4.662,0,8.44,3.779,8.44,8.44v20.255C264.44,337.312,260.662,341.091,256,341.091z"/>
	<path style="fill:#FFFFFF;" d="M256,401.945c-4.662,0-8.44-3.779-8.44-8.44V373.25c0-4.661,3.778-8.44,8.44-8.44
		c4.662,0,8.44,3.779,8.44,8.44v20.255C264.44,398.166,260.662,401.945,256,401.945z"/>
</g>
<g>
</g>
<g>
</g>
<g>
</g>
<g>
</g>
<g>
</g>
<g>
</g>
<g>
</g>
<g>
</g>
<g>
</g>
<g>
</g>
<g>
</g>
<g>
</g>
<g>
</g>
<g>
</g>
<g>
</g>
</svg>
